<svg width="40" height="40" viewBox="0 0 40 40" fill="none" xmlns="http://www.w3.org/2000/svg">
<path d="M19.0739 2.27402C19.4121 1.4436 20.5879 1.4436 20.9261 2.27402L24.9853 12.2408C25.1287 12.593 25.4596 12.8334 25.8389 12.861L36.5722 13.6416C37.4665 13.7066 37.8299 14.8249 37.1446 15.4032L28.92 22.3436C28.6293 22.5889 28.503 22.9778 28.5939 23.347L31.1683 33.7962C31.3828 34.6669 30.4315 35.358 29.6698 34.885L20.5276 29.2076C20.2045 29.007 19.7955 29.007 19.4724 29.2076L10.3302 34.885C9.56847 35.358 8.61717 34.6669 8.83167 33.7963L11.4061 23.347C11.497 22.9778 11.3707 22.5889 11.08 22.3436L2.8554 15.4032C2.17013 14.8249 2.5335 13.7066 3.42778 13.6416L14.1611 12.861C14.5404 12.8334 14.8713 12.593 15.0147 12.2408L19.0739 2.27402Z" fill="black"/>
<rect x="19" y="11" width="2" height="11" rx="1" fill="white"/>
<circle cx="20" cy="25" r="1" fill="white"/>
</svg>
